HIERARCHY
ROOT joint_Root
{
	OFFSET 0.0 0.0 0.0
	CHANNELS 6 Xposition Yposition Zposition Zrotation Xrotation Yrotation 
	JOINT Hips
	{
		OFFSET -0.726466 93.3139 -2.00062
		CHANNELS 6 Xposition Yposition Zposition Zrotation Xrotation Yrotation 
		JOINT Spine
		{
			OFFSET 15.7357 0.0 0.0
			CHANNELS 6 Xposition Yposition Zposition Zrotation Xrotation Yrotation 
			JOINT Chest
			{
				OFFSET 8.98455 -0.406207 0.0
				CHANNELS 6 Xposition Yposition Zposition Zrotation Xrotation Yrotation 
				JOINT Neck
				{
					OFFSET 16.3773 0.0 0.0
					CHANNELS 6 Xposition Yposition Zposition Zrotation Xrotation Yrotation 
					JOINT Head
					{
						OFFSET 6.45672 0.0 0.0
						CHANNELS 6 Xposition Yposition Zposition Zrotation Xrotation Yrotation 
						End Site
						{
							OFFSET 0.0 0.0 0.0
						}
					}
				}
				JOINT Shoulder_L
				{
					OFFSET 12.9942 -0.242716 4.98039
					CHANNELS 6 Xposition Yposition Zposition Zrotation Xrotation Yrotation 
					JOINT UpperArm_L
					{
						OFFSET 5.34809 0.0 0.0
						CHANNELS 6 Xposition Yposition Zposition Zrotation Xrotation Yrotation 
						JOINT LowerArm_L
						{
							OFFSET 24.3286 1.87007e-05 0.0
							CHANNELS 6 Xposition Yposition Zposition Zrotation Xrotation Yrotation 
							JOINT Hand_L
							{
								OFFSET 22.2916 0.0 0.0
								CHANNELS 6 Xposition Yposition Zposition Zrotation Xrotation Yrotation 
								End Site
								{
									OFFSET 0.0 0.0 0.0
								}
							}
						}
					}
				}
				JOINT Shoulder_R
				{
					OFFSET 12.9945 -0.242716 -4.98039
					CHANNELS 6 Xposition Yposition Zposition Zrotation Xrotation Yrotation 
					JOINT UpperArm_R
					{
						OFFSET -5.34813 0.0 0.0
						CHANNELS 6 Xposition Yposition Zposition Zrotation Xrotation Yrotation 
						JOINT LowerArm_R
						{
							OFFSET -24.3289 0.000322201 0.0
							CHANNELS 6 Xposition Yposition Zposition Zrotation Xrotation Yrotation 
							JOINT Hand_R
							{
								OFFSET -22.2915 -0.000108084 0.0
								CHANNELS 6 Xposition Yposition Zposition Zrotation Xrotation Yrotation 
								End Site
								{
									OFFSET 0.0 0.0 0.0
								}
							}
						}
					}
				}
			}
		}
		JOINT UpperLeg_L
		{
			OFFSET -2.19248 -6.46944 0.0
			CHANNELS 6 Xposition Yposition Zposition Zrotation Xrotation Yrotation 
			JOINT LowerLeg_L
			{
				OFFSET 39.0811 0.0 -1.23785e-05
				CHANNELS 6 Xposition Yposition Zposition Zrotation Xrotation Yrotation 
				JOINT Foot_L
				{
					OFFSET 40.9854 0.0 -1.26872e-05
					CHANNELS 6 Xposition Yposition Zposition Zrotation Xrotation Yrotation 
					JOINT Toes_L
					{
						OFFSET 11.7543 0.0 0.0
						CHANNELS 6 Xposition Yposition Zposition Zrotation Xrotation Yrotation 
						End Site
						{
							OFFSET 0.0 0.0 0.0
						}
					}
				}
			}
		}
		JOINT UpperLeg_R
		{
			OFFSET -2.19251 6.46944 0.0
			CHANNELS 6 Xposition Yposition Zposition Zrotation Xrotation Yrotation 
			JOINT LowerLeg_R
			{
				OFFSET -39.0811 -0.00228153 -0.0401928
				CHANNELS 6 Xposition Yposition Zposition Zrotation Xrotation Yrotation 
				JOINT Foot_R
				{
					OFFSET -40.9854 0.0 0.0
					CHANNELS 6 Xposition Yposition Zposition Zrotation Xrotation Yrotation 
					JOINT Toes_R
					{
						OFFSET -11.7543 0.0 0.0
						CHANNELS 6 Xposition Yposition Zposition Zrotation Xrotation Yrotation 
						End Site
						{
							OFFSET 0.0 0.0 0.0
						}
					}
				}
			}
		}
	}
}
MOTION
Frames:	9
Frame Time:	0.0333333
0.000000 0.000000 0.000000 0.000000 0.000000 -0.000000 -1.223950 91.849200 0.482801 87.486300 -1.452090 2.239940 15.735700 0.000005 -0.000001 82.229200 86.383500 -81.871600 8.984550 -0.406207 -0.000000 -0.596209 -1.003860 0.709546 16.377300 -0.000001 -0.000001 4.517580 -0.588846 -1.825940 6.456720 -0.000001 -0.000000 3.843400 0.505649 5.773620 12.994200 -0.242716 4.980390 -89.317200 -1.727790 -68.432100 5.348090 -0.000007 -0.000001 -66.937100 37.159500 -13.677800 24.328600 0.000019 0.000005 2.211590 4.961960 -24.059800 22.291600 -0.000001 0.000005 3.855850 5.573720 -9.880330 12.994500 -0.242716 -4.980390 87.679200 5.722610 -67.880900 -5.348130 -0.000001 -0.000004 -59.692500 39.265300 -7.134970 -24.328900 0.000322 -0.000009 -2.903710 -3.580370 -39.091700 -22.291500 -0.000108 -0.000004 3.508420 5.592410 -10.903100 -2.192480 -6.469440 -0.000000 -167.787000 -16.272500 -2.185430 39.081100 -0.000007 -0.000012 -0.209410 0.538692 21.243400 40.985400 -0.000006 -0.000013 -7.447740 1.837650 -64.450500 11.754300 -0.000000 0.000003 -0.000151 -0.001461 -16.633100 -2.192510 6.469440 -0.000001 174.115000 20.115900 -179.964000 -39.081100 -0.002282 -0.040193 -0.090006 0.280787 18.386400 -40.985400 0.000008 0.000006 -5.421230 3.846020 -63.770400 -11.754300 -0.000006 -0.000006 -0.004109 -0.052570 -18.711600
0.000000 0.000000 0.000000 0.000000 0.000000 -0.000000 -1.205550 91.854000 0.430347 87.532800 -1.404660 2.305360 15.735700 0.000005 -0.000001 81.837300 86.301800 -81.389000 8.984550 -0.406207 -0.000000 -0.440088 -1.082040 0.891898 16.377300 -0.000001 -0.000001 4.472370 -0.638796 -1.619320 6.456720 -0.000001 -0.000000 3.671750 0.478071 6.031160 12.994200 -0.242716 4.980390 -89.320900 -1.709780 -68.334900 5.348090 -0.000007 -0.000001 -65.521200 36.096400 -15.007000 24.328600 0.000019 0.000005 2.539150 5.660410 -24.208500 22.291600 -0.000001 0.000005 4.391540 5.573950 -9.892070 12.994500 -0.242716 -4.980390 87.805900 5.373860 -67.750800 -5.348130 -0.000001 -0.000004 -57.734800 43.140100 -6.289470 -24.328900 0.000322 -0.000009 -1.926300 -1.894840 -45.518100 -22.291500 -0.000108 -0.000004 2.743810 5.600240 -11.361200 -2.192480 -6.469440 -0.000000 -167.837000 -16.275700 -2.168950 39.081100 -0.000007 -0.000012 -0.210593 0.542058 21.231800 40.985400 -0.000006 -0.000013 -7.424540 1.841950 -64.397400 11.754300 -0.000000 0.000003 -0.000151 -0.001458 -16.633000 -2.192510 6.469440 -0.000001 174.042000 20.121600 -179.940000 -39.081100 -0.002282 -0.040193 -0.089561 0.279059 18.410200 -40.985400 0.000008 0.000006 -5.442370 3.852910 -63.747100 -11.754300 -0.000006 -0.000006 -0.004200 -0.053505 -18.749700
0.000000 0.000000 0.000000 0.000000 0.000000 -0.000000 -1.221380 91.866600 0.330059 87.562900 -1.255060 2.278830 15.735700 0.000005 -0.000001 81.081700 86.246800 -80.516000 8.984550 -0.406207 -0.000000 -0.344084 -1.203450 1.127200 16.377300 -0.000001 -0.000001 4.423800 -0.719714 -1.459490 6.456720 -0.000001 -0.000000 3.561290 0.435715 6.419610 12.994200 -0.242716 4.980390 -89.285600 -1.789080 -68.228300 5.348090 -0.000007 -0.000001 -63.385900 34.266700 -17.065800 24.328600 0.000019 0.000005 2.513490 5.491110 -24.642600 22.291600 -0.000001 0.000005 5.186730 5.572050 -9.794830 12.994500 -0.242716 -4.980390 87.988100 4.886060 -67.587200 -5.348130 -0.000001 -0.000004 -55.737400 46.628200 -5.234570 -24.328900 0.000322 -0.000009 -0.408445 -0.310980 -52.819200 -22.291500 -0.000108 -0.000004 0.941930 5.610670 -12.014700 -2.192480 -6.469440 -0.000000 -167.902000 -16.193400 -2.307660 39.081100 -0.000007 -0.000012 -0.208783 0.538241 21.201600 40.985400 -0.000006 -0.000013 -7.394010 1.902910 -64.286300 11.754300 -0.000000 0.000003 -0.000149 -0.001443 -16.632400 -2.192510 6.469440 -0.000001 174.058000 20.164200 179.971000 -39.081100 -0.002282 -0.040193 -0.090038 0.280307 18.421500 -40.985400 0.000008 0.000006 -5.428370 3.733920 -63.710500 -11.754300 -0.000006 -0.000006 -0.004161 -0.053101 -18.733200
0.000000 0.000000 0.000000 0.000000 0.000000 -0.000000 -1.260440 91.875800 0.247499 87.581200 -0.978327 2.372840 15.735700 0.000005 -0.000001 80.282400 86.171300 -79.577200 8.984550 -0.406207 -0.000000 -0.209743 -1.341270 1.407210 16.377300 -0.000001 -0.000001 4.498280 -0.874129 -1.266960 6.456720 -0.000001 -0.000000 3.411880 0.373554 6.816160 12.994200 -0.242716 4.980390 -89.215700 -1.960990 -68.196100 5.348090 -0.000007 -0.000001 -60.644500 31.533600 -19.685200 24.328600 0.000019 0.000005 2.607660 5.426020 -25.716600 22.291600 -0.000001 0.000005 5.704370 5.565780 -9.475950 12.994500 -0.242716 -4.980390 88.196100 4.322110 -67.319800 -5.348130 -0.000001 -0.000004 -53.432400 50.109800 -4.277540 -24.328900 0.000322 -0.000009 1.458240 0.818797 -60.599000 -22.291500 -0.000108 -0.000004 -1.781660 5.613280 -12.166400 -2.192480 -6.469440 -0.000000 -167.876000 -16.116500 -2.302840 39.081100 -0.000007 -0.000012 -0.207698 0.537139 21.140600 40.985400 -0.000006 -0.000013 -7.370660 2.114350 -64.155000 11.754300 -0.000000 0.000003 -0.000150 -0.001451 -16.632700 -2.192510 6.469440 -0.000001 174.064000 20.197000 -179.953000 -39.081100 -0.002282 -0.040193 -0.090265 0.280863 18.429200 -40.985400 0.000008 0.000006 -5.432360 3.510270 -63.715600 -11.754300 -0.000006 -0.000006 -0.004006 -0.051501 -18.668000
0.000000 0.000000 0.000000 0.000000 0.000000 -0.000000 -1.303280 91.878700 0.150708 87.661700 -0.632559 2.423140 15.735700 0.000005 -0.000001 78.929500 86.107900 -78.083100 8.984550 -0.406207 -0.000000 -0.114449 -1.552530 1.690350 16.377300 -0.000001 -0.000001 4.541850 -1.016130 -1.082600 6.456720 -0.000001 -0.000000 3.405050 0.332462 7.298550 12.994200 -0.242716 4.980390 -89.121800 -2.201990 -68.249400 5.348090 -0.000007 -0.000001 -57.666200 27.810000 -22.582800 24.328600 0.000019 0.000005 2.736900 5.325160 -27.253100 22.291600 -0.000001 0.000005 6.886920 5.566210 -9.498630 12.994500 -0.242716 -4.980390 88.396700 3.785330 -67.024100 -5.348130 -0.000001 -0.000004 -50.812900 53.544600 -3.697810 -24.328900 0.000322 -0.000009 4.313840 1.722680 -68.238600 -22.291500 -0.000108 -0.000004 -3.158440 5.614590 -12.257700 -2.192480 -6.469440 -0.000000 -167.959000 -15.888500 -2.418700 39.081100 -0.000007 -0.000012 -0.205133 0.531188 21.115800 40.985400 -0.000006 -0.000013 -7.358590 2.209640 -64.018600 11.754300 -0.000000 0.000003 -0.000139 -0.001360 -16.629300 -2.192510 6.469440 -0.000001 174.023000 20.352100 -179.992000 -39.081100 -0.002282 -0.040193 -0.089636 0.276551 18.579600 -40.985400 0.000008 0.000006 -5.410240 3.320860 -63.784000 -11.754300 -0.000006 -0.000006 -0.004164 -0.053133 -18.734500
0.000000 0.000000 0.000000 0.000000 0.000000 -0.000000 -1.348190 91.882400 0.058210 87.686800 -0.334756 2.596170 15.735700 0.000005 -0.000001 77.755000 86.016300 -76.753100 8.984550 -0.406207 -0.000000 0.036516 -1.756940 2.003150 16.377300 -0.000001 -0.000001 4.624890 -1.178340 -0.878678 6.456720 -0.000001 -0.000000 3.435210 0.294065 7.979940 12.994200 -0.242716 4.980390 -88.978400 -2.563980 -68.266900 5.348090 -0.000007 -0.000001 -54.799400 23.088700 -25.775700 24.328600 0.000019 0.000005 2.602210 4.709300 -28.969900 22.291600 -0.000001 0.000005 7.914710 5.563390 -9.355220 12.994500 -0.242716 -4.980390 88.609400 3.249920 -66.818700 -5.348130 -0.000001 -0.000004 -48.610000 56.395700 -3.098720 -24.328900 0.000322 -0.000009 7.346460 1.958040 -75.138500 -22.291500 -0.000108 -0.000004 -4.202750 5.613360 -12.173900 -2.192480 -6.469440 -0.000000 -167.934000 -15.799600 -2.394170 39.081100 -0.000007 -0.000012 -0.205501 0.531918 21.123900 40.985400 -0.000006 -0.000013 -7.325780 2.398390 -63.900400 11.754300 -0.000000 0.000003 -0.000138 -0.001353 -16.629100 -2.192510 6.469440 -0.000001 173.971000 20.524100 -179.860000 -39.081100 -0.002282 -0.040193 -0.090383 0.277624 18.651200 -40.985400 0.000008 0.000006 -5.388900 3.201340 -63.803400 -11.754300 -0.000006 -0.000006 -0.004243 -0.053949 -18.767700
0.000000 0.000000 0.000000 0.000000 0.000000 -0.000000 -1.417860 91.885200 -0.054058 87.705100 -0.192613 2.724340 15.735700 0.000005 -0.000001 77.147900 85.928000 -75.987000 8.984550 -0.406207 -0.000000 0.194545 -1.887700 2.323530 16.377300 -0.000001 -0.000001 4.672600 -1.312910 -0.520828 6.456720 -0.000001 -0.000000 3.417170 0.192627 8.581870 12.994200 -0.242716 4.980390 -88.829100 -2.911380 -68.078800 5.348090 -0.000007 -0.000001 -51.701700 18.043500 -29.560400 24.328600 0.000019 0.000005 2.414120 4.070940 -30.703900 22.291600 -0.000001 0.000005 8.904200 5.561110 -9.241820 12.994500 -0.242716 -4.980390 88.835400 2.704900 -66.695600 -5.348130 -0.000001 -0.000004 -47.097100 58.511500 -2.356820 -24.328900 0.000322 -0.000009 10.598900 1.691860 -81.023900 -22.291500 -0.000108 -0.000004 -5.054660 5.607350 -11.791100 -2.192480 -6.469440 -0.000000 -167.890000 -15.770200 -2.373700 39.081100 -0.000007 -0.000012 -0.201763 0.522640 21.109200 40.985400 -0.000006 -0.000013 -7.319210 2.567290 -63.777500 11.754300 -0.000000 0.000003 -0.000122 -0.001222 -16.624200 -2.192510 6.469440 -0.000001 173.979000 20.616900 -179.852000 -39.081100 -0.002282 -0.040193 -0.090710 0.276386 18.789600 -40.985400 0.000008 0.000006 -5.323240 3.138910 -63.833300 -11.754300 -0.000006 -0.000006 -0.004437 -0.055914 -18.847800
0.000000 0.000000 0.000000 0.000000 0.000000 -0.000000 -1.484100 91.895000 -0.163569 87.749800 -0.142478 2.808370 15.735700 0.000005 -0.000001 77.094900 85.883500 -75.780700 8.984550 -0.406207 -0.000000 0.282912 -1.924010 2.631470 16.377300 -0.000001 -0.000001 4.773800 -1.490590 -0.230479 6.456720 -0.000001 -0.000000 3.374240 0.057012 9.376080 12.994200 -0.242716 4.980390 -88.634900 -3.377120 -67.974400 5.348090 -0.000007 -0.000001 -49.091600 12.470000 -33.390400 24.328600 0.000019 0.000005 2.399710 3.766800 -32.532800 22.291600 -0.000001 0.000005 10.252500 5.561850 -9.278220 12.994500 -0.242716 -4.980390 89.037400 2.220910 -66.560600 -5.348130 -0.000001 -0.000004 -46.356900 60.241200 -1.205980 -24.328900 0.000322 -0.000009 14.589400 1.082070 -85.843000 -22.291500 -0.000108 -0.000004 -4.813280 5.608470 -11.861400 -2.192480 -6.469440 -0.000000 -167.876000 -15.763100 -2.316800 39.081100 -0.000007 -0.000012 -0.200755 0.523217 20.991800 40.985400 -0.000006 -0.000013 -7.347110 2.610040 -63.623900 11.754300 -0.000000 0.000003 -0.000139 -0.001365 -16.629500 -2.192510 6.469440 -0.000001 173.967000 20.717700 -179.890000 -39.081100 -0.002282 -0.040193 -0.091250 0.276247 18.898700 -40.985400 0.000008 0.000006 -5.245170 3.164050 -63.830300 -11.754300 -0.000006 -0.000006 -0.004059 -0.052048 -18.690300
0.000000 0.000000 0.000000 0.000000 0.000000 -0.000000 -1.559490 91.889600 -0.245100 87.752900 -0.111982 2.987390 15.735700 0.000005 -0.000001 76.493000 85.788300 -75.011500 8.984550 -0.406207 -0.000000 0.453374 -2.061300 2.969240 16.377300 -0.000001 -0.000001 4.769730 -1.606700 0.091354 6.456720 -0.000001 -0.000000 3.364230 0.036994 10.199900 12.994200 -0.242716 4.980390 -88.368400 -4.002820 -67.801200 5.348090 -0.000007 -0.000001 -46.636800 6.705140 -37.397000 24.328600 0.000019 0.000005 2.163250 3.217350 -33.944900 22.291600 -0.000001 0.000005 11.727800 5.564850 -9.427050 12.994500 -0.242716 -4.980390 89.279900 1.660140 -66.546300 -5.348130 -0.000001 -0.000004 -46.637700 61.558600 0.209170 -24.328900 0.000322 -0.000009 16.901000 0.191628 -89.367300 -22.291500 -0.000108 -0.000004 -5.628690 5.601960 -11.457400 -2.192480 -6.469440 -0.000000 -167.815000 -15.693200 -2.237060 39.081100 -0.000007 -0.000012 -0.198269 0.515415 21.040900 40.985400 -0.000006 -0.000013 -7.375420 2.582160 -63.570800 11.754300 -0.000000 0.000003 -0.000144 -0.001404 -16.631000 -2.192510 6.469440 -0.000001 173.941000 20.865000 -179.825000 -39.081100 -0.002282 -0.040193 -0.093692 0.280747 19.063200 -40.985400 0.000008 0.000006 -5.154330 3.286050 -63.872700 -11.754300 -0.000006 -0.000006 -0.004160 -0.053092 -18.732800
